<svg width="21" height="19" viewBox="0 0 21 19" fill="none" xmlns="http://www.w3.org/2000/svg">
<path d="M19.9282 6.65457C17.6182 3.02457 14.2382 0.93457 10.6782 0.93457C8.89822 0.93457 7.16822 1.45457 5.58822 2.42457C4.00822 3.40457 2.58822 4.83457 1.42822 6.65457C0.428223 8.22457 0.428223 10.7746 1.42822 12.3446C3.73822 15.9846 7.11822 18.0646 10.6782 18.0646C12.4582 18.0646 14.1882 17.5446 15.7682 16.5746C17.3482 15.5946 18.7682 14.1646 19.9282 12.3446C20.9282 10.7846 20.9282 8.22457 19.9282 6.65457ZM10.6782 13.5446C8.43822 13.5446 6.63822 11.7346 6.63822 9.50457C6.63822 7.27457 8.43822 5.46457 10.6782 5.46457C12.9182 5.46457 14.7182 7.27457 14.7182 9.50457C14.7182 11.7346 12.9182 13.5446 10.6782 13.5446Z" fill="white"/>
<path d="M10.6781 6.64453C9.10813 6.64453 7.82812 7.92453 7.82812 9.50453C7.82812 11.0745 9.10813 12.3545 10.6781 12.3545C12.2481 12.3545 13.5381 11.0745 13.5381 9.50453C13.5381 7.93453 12.2481 6.64453 10.6781 6.64453Z" fill="white"/>
</svg>
