<svg width="20" height="17" viewBox="0 0 20 17" fill="none" xmlns="http://www.w3.org/2000/svg">
<path d="M2.29445 0.191507C2.0391 -0.0638357 1.62511 -0.0638357 1.36977 0.191507C1.11442 0.44685 1.11442 0.860843 1.36977 1.11619L17.0621 16.8085C17.3174 17.0638 17.7314 17.0638 17.9868 16.8085C18.2421 16.5532 18.2421 16.1392 17.9868 15.8838L2.29445 0.191507Z" fill="white" fill-opacity="0.1"/>
<path d="M18.9854 8.98237C18.5112 10.4081 17.7185 11.6886 16.6916 12.7393L13.9903 10.038C14.1618 9.55736 14.2552 9.03958 14.2552 8.5C14.2552 5.97223 12.206 3.92308 9.67826 3.92308C9.13868 3.92308 8.6209 4.01645 8.14021 4.18792L5.98096 2.02866C7.12201 1.56384 8.37037 1.30769 9.67871 1.30769C14.0118 1.30769 17.687 4.11724 18.9851 8.01219C19.0901 8.32696 19.0902 8.66754 18.9854 8.98237Z" fill="white" fill-opacity="0.1"/>
<path d="M12.9475 8.5C12.9475 8.65707 12.9364 8.81155 12.915 8.9627L9.21556 5.26326C9.36671 5.24185 9.52119 5.23077 9.67826 5.23077C11.4838 5.23077 12.9475 6.69445 12.9475 8.5Z" fill="white" fill-opacity="0.1"/>
<path d="M10.141 11.7367L6.44152 8.0373C6.42011 8.18845 6.40903 8.34293 6.40903 8.5C6.40903 10.3055 7.87271 11.7692 9.67826 11.7692C9.83533 11.7692 9.98981 11.7582 10.141 11.7367Z" fill="white" fill-opacity="0.1"/>
<path d="M5.10134 8.5C5.10134 7.96042 5.19471 7.44264 5.36618 6.96195L2.6646 4.26038C1.63758 5.31117 0.844774 6.59176 0.370465 8.01763C0.265737 8.33246 0.265837 8.67304 0.37075 8.98781C1.66894 12.8828 5.34411 15.6923 9.67718 15.6923C10.9857 15.6923 12.2342 15.4361 13.3754 14.9712L11.2163 12.8121C10.7356 12.9836 10.2178 13.0769 9.67826 13.0769C7.1505 13.0769 5.10134 11.0278 5.10134 8.5Z" fill="white" fill-opacity="0.1"/>
</svg>
