<svg width="14" height="17" viewBox="0 0 14 17" fill="none" xmlns="http://www.w3.org/2000/svg">
<path fill-rule="evenodd" clip-rule="evenodd" d="M6.74302 0C4.39581 0 2.49302 1.90279 2.49302 4.25V6.67857C1.15176 6.67857 0.0644531 7.76588 0.0644531 9.10714V14.5714C0.0644531 15.9127 1.15176 17 2.49302 17H10.993C12.3343 17 13.4216 15.9127 13.4216 14.5714V9.10714C13.4216 7.76588 12.3343 6.67857 10.993 6.67857V4.25C10.993 1.90279 9.09023 0 6.74302 0ZM9.77874 6.67857V4.25C9.77874 2.57342 8.4196 1.21429 6.74302 1.21429C5.06645 1.21429 3.70731 2.57342 3.70731 4.25V6.67857H9.77874Z" fill="white" fill-opacity="0.4"/>
</svg>
